<?xml version="1.0" encoding="utf-8"?>
<!-- Generator: Adobe Illustrator 24.2.0, SVG Export Plug-In . SVG Version: 6.00 Build 0)  -->
<svg version="1.1" xmlns="http://www.w3.org/2000/svg" xmlns:xlink="http://www.w3.org/1999/xlink" x="0px" y="0px"
	 viewBox="0 0 77.4 191.5" style="enable-background:new 0 0 77.4 191.5;" xml:space="preserve">
<style type="text/css">
	.st0{display:none;}
	.st1{display:inline;fill:#232323;}
	.st2{fill:#262C2C;}
	.st3{display:inline;}
	.st4{font-family:'jf-jinxuan-fresh2.2-Book-B5pc-H';}
	.st5{font-size:86.1747px;}
	.st6{font-family:'Prata-Regular';}
	.st7{font-size:26.4622px;}
</style>
<g id="圖層_4" class="st0">
	<rect x="-29" y="-31" class="st1" width="194.8" height="242.2"/>
</g>
<g id="圖層_6">
	<g>
		<path class="st2" d="M0.1,67.1c5.9-5,10.1-11.4,12.4-20.2l2.6,0.7c-0.9,8.8-5,18.6-9.7,23.9L0.1,67.1z M12.2,0.2h53.3v37.9H12.2
			V0.2z M35.8,16.6V3.7H18v12.9H35.8z M35.8,34.7V20H18v14.7H35.8z M19.7,65.5V43.8h5.9v19.3c0,3.6,0.6,5.2,7.8,5.4
			c5.8,0.2,14.8,0.3,19.3-0.2c4.6-0.6,4.8-1.9,4.9-13.9h2.6c3.4,14.9,1.7,18.4-6.5,19.1c-5.8,0.4-15.7,0.3-21,0.2
			C23.1,73.4,19.7,71.3,19.7,65.5z M33.1,42.4l1.6-2c4.7,2.8,11.5,8.3,15.9,12.7l-4.9,4.7C42.3,53,37.1,46.7,33.1,42.4z M59.7,16.6
			V3.7H41.5v12.9H59.7z M59.7,34.7V20H41.5v14.7H59.7z M61,48.6l2-1.6c5,4.7,10.7,11.8,14.2,18.2l-5.3,3.4
			C68.9,61.8,65.3,55.3,61,48.6z"/>
	</g>
	<g>
		<path class="st2" d="M2.9,130c4.4,2.5,10.8,6.8,14.7,10.6l-4.1,4.7c-3.4-4.2-8.7-9.7-12.1-13.1L2.9,130z M14.3,152.9l2.5,0.8
			c-2.2,11.7-6.5,27.2-9.2,34.7l-6-2.9C5.5,177.2,11.1,163,14.3,152.9z M2.1,113l1.4-2.2c4.6,2.3,10.6,6.3,14.6,9.9l-4.2,4.7
			C10.5,121.4,5.7,116.4,2.1,113z M49.7,171.2H37.6v18.9h-5.5v-18.9H18v-3.4h14v-8.3H21.5v-26.7h10.6v-8.4H18.7v-3.4h13.4v-10.9h5.5
			v10.9h12.6v3.4H37.6v8.4h10.5v26.7H37.6v8.3h12.1V171.2z M26.7,144.3H43v-8.1H26.7V144.3z M43,156.2v-8.6H26.7v8.6H43z
			 M75.7,115.1v67.7c0,6.9-6.2,9.4-19.6,3.5l0.6-2.5c12,2.1,13.4,1.5,13.4-2.8v-23.4h-12c-0.9,14.7-4.2,24.5-12.9,33.4l-1.9-1.7
			c8.2-11,9.7-20.2,9.7-42.7v-31.5H75.7z M70.2,154.4v-17.1H58.5v8.4c0,3-0.1,5.9-0.2,8.6H70.2z M58.5,118.5v15.6h11.6v-15.6H58.5z"
			/>
	</g>
	<g>
		<path class="st2" d="M6.8,101.9c-1.9-0.9-3.4-2.2-4.4-3.9s-1.6-3.6-1.6-5.8s0.5-4.1,1.6-5.8s2.5-3,4.4-3.9c1.9-0.9,4-1.4,6.4-1.4
			s4.5,0.5,6.4,1.4s3.4,2.2,4.4,3.9c1.1,1.7,1.6,3.6,1.6,5.8s-0.5,4.1-1.6,5.8c-1.1,1.7-2.5,3-4.4,3.9c-1.9,0.9-4,1.4-6.4,1.4
			S8.7,102.8,6.8,101.9z M17.5,101.7c1.3-0.7,2.3-1.6,3-2.9c0.7-1.3,1.1-2.8,1.1-4.5v-4.1c0-1.7-0.4-3.3-1.1-4.5
			c-0.7-1.3-1.7-2.3-3-2.9c-1.3-0.7-2.7-1-4.3-1c-1.6,0-3,0.3-4.3,1c-1.3,0.7-2.2,1.6-3,2.9c-0.7,1.3-1.1,2.8-1.1,4.5v4.1
			c0,1.7,0.4,3.3,1.1,4.5c0.7,1.3,1.7,2.3,3,2.9c1.3,0.7,2.7,1,4.3,1C14.8,102.7,16.2,102.3,17.5,101.7z"/>
		<path class="st2" d="M32.6,102.1c-1.2-0.6-2.1-1.4-2.8-2.5c-0.7-1.1-1-2.3-1-3.7s0.3-2.7,1-3.7c0.7-1.1,1.6-1.9,2.8-2.5
			c1.2-0.6,2.6-0.9,4.1-0.9c1.3,0,2.4,0.3,3.3,0.8c0.9,0.5,1.7,1.3,2.2,2.2v-9.4L40,82.1v-0.5h5.6v20.4l2.3,0.3v0.5h-5.6V100
			c-0.5,0.9-1.3,1.7-2.2,2.2S38,103,36.7,103C35.1,103,33.8,102.7,32.6,102.1z M39.6,101.7c0.8-0.5,1.4-1,1.9-1.8
			c0.5-0.8,0.7-1.6,0.7-2.4v-3c0-0.9-0.3-1.7-0.7-2.4c-0.5-0.8-1.1-1.3-1.9-1.8c-0.8-0.4-1.7-0.7-2.6-0.7c-3.1,0-4.6,1.7-4.6,5.1
			v2.6c0,3.4,1.5,5.1,4.6,5.1C38,102.3,38.9,102.1,39.6,101.7z"/>
		<path class="st2" d="M49.5,102.7v-0.5l2.3-0.3V89.9l-2.3-0.3v-0.5h5.6v12.9l2.3,0.3v0.5H49.5z M51.4,85.4
			c-0.4-0.3-0.7-0.8-0.7-1.3c0-0.5,0.2-0.9,0.6-1.2c0.4-0.3,1-0.5,1.6-0.5c0.6,0,1.1,0.2,1.5,0.5c0.4,0.3,0.6,0.8,0.6,1.2
			c0,0.5-0.2,0.9-0.6,1.3C54.1,85.8,53.6,86,53,86C52.4,86,51.8,85.8,51.4,85.4z"/>
		<path class="st2" d="M60.9,102.1c-0.9-0.6-1.4-1.5-1.4-2.6c0-1.7,0.9-2.8,2.6-3.5c1.7-0.7,3.7-1,6-1h2.2v-2c0-0.9-0.1-1.6-0.4-2.1
			c-0.3-0.5-0.6-0.9-1.2-1.1c-0.5-0.2-1.2-0.3-2.1-0.3c-1,0-1.8,0.2-2.3,0.5c-0.5,0.3-0.8,0.8-0.8,1.3c0,0.5,0.3,0.8,0.9,1
			c0,0.4-0.2,0.8-0.6,1.2c-0.4,0.3-0.9,0.5-1.5,0.5c-0.6,0-1.1-0.1-1.5-0.4c-0.4-0.3-0.6-0.7-0.6-1.3c0-1,0.6-1.8,1.9-2.5
			c1.3-0.6,2.9-0.9,4.8-0.9c4.4,0,6.6,1.5,6.6,4.6v7.6c0,0.4,0.1,0.7,0.3,0.9c0.2,0.2,0.5,0.3,0.9,0.3c0.4,0,0.7-0.1,0.9-0.3
			c0.2-0.2,0.3-0.5,0.3-0.8h0.7c0,0.6-0.2,1.1-0.7,1.5c-0.5,0.4-1.2,0.5-2.1,0.5c-1,0-1.9-0.2-2.6-0.7c-0.7-0.5-1-1.2-1.1-2.2
			c-0.5,0.9-1.3,1.6-2.4,2.1c-1.1,0.5-2.3,0.8-3.6,0.8C63,103,61.8,102.7,60.9,102.1z M68,101.4c0.6-0.3,1.2-0.7,1.6-1.2
			s0.7-1.2,0.8-1.9v-2.8h-2.2c-1.8,0-3.1,0.3-4,1c-0.9,0.6-1.3,1.5-1.3,2.7c0,1,0.3,1.7,0.9,2.1c0.6,0.4,1.4,0.6,2.5,0.6
			C66.8,101.8,67.4,101.7,68,101.4z"/>
	</g>
</g>
<g id="圖層_6_拷貝" class="st0">
	<text transform="matrix(1 0 0 1 -4.6874 69.4209)" class="st3 st4 st5">思</text>
	<text transform="matrix(1 0 0 1 -2.2977 182.9309)" class="st3 st4 st5">潮</text>
	<text transform="matrix(1.2443 0 0 1 -0.9662 102.7405)" class="st3 st6 st7">Odia</text>
</g>
</svg>
