<?xml version="1.0" encoding="utf-8"?>
<!-- Generator: Adobe Illustrator 24.2.0, SVG Export Plug-In . SVG Version: 6.00 Build 0)  -->
<svg version="1.1" id="圖層_5" xmlns="http://www.w3.org/2000/svg" xmlns:xlink="http://www.w3.org/1999/xlink" x="0px" y="0px"
	 viewBox="0 0 195 242" style="enable-background:new 0 0 195 242;" xml:space="preserve">
<style type="text/css">
	.st0{fill:#FFFFFF;}
	.st1{opacity:0.33;fill:#FFFFFF;}
</style>
<path class="st0" d="M37.7,152c-0.3,0-0.5-0.1-0.7-0.3c-0.4-0.4-0.4-1,0-1.4l28.6-28.6c0.4-0.4,1-0.4,1.4,0s0.4,1,0,1.4l-28.6,28.6
	C38.2,151.9,37.9,152,37.7,152z"/>
<path class="st0" d="M19.6,147c-0.3,0-0.5-0.1-0.7-0.3c-0.4-0.4-0.4-1,0-1.4l11.8-11.8c0.4-0.4,1-0.4,1.4,0c0.4,0.4,0.4,1,0,1.4
	l-11.8,11.8C20.1,146.9,19.9,147,19.6,147z"/>
<g>
	<path class="st0" d="M29.4,97.7c5.9-5,10.1-11.4,12.4-20.2l2.6,0.7c-0.9,8.8-5,18.6-9.7,23.9L29.4,97.7z M41.6,30.8h53.3v37.9H41.6
		V30.8z M65.2,47.2V34.3H47.4v12.9H65.2z M65.2,65.3V50.5H47.4v14.7H65.2z M49.1,96V74.4H55v19.3c0,3.6,0.6,5.2,7.8,5.4
		c5.8,0.2,14.8,0.3,19.3-0.2c4.6-0.6,4.8-1.9,4.9-13.9h2.6c3.4,14.9,1.7,18.4-6.5,19.1c-5.8,0.4-15.7,0.3-21,0.2
		C52.5,104,49.1,101.9,49.1,96z M62.4,73l1.6-2c4.7,2.8,11.5,8.3,15.9,12.7L75,88.4C71.7,83.6,66.5,77.3,62.4,73z M89.1,47.2V34.3
		H70.9v12.9H89.1z M89.1,65.3V50.5H70.9v14.7H89.1z M90.4,79.2l2-1.6c5,4.7,10.7,11.8,14.2,18.2l-5.3,3.4
		C98.3,92.3,94.7,85.9,90.4,79.2z"/>
</g>
<g>
	<path class="st0" d="M89.9,100.2c4.4,2.5,10.8,6.8,14.7,10.6l-4.1,4.7c-3.4-4.2-8.7-9.7-12.1-13.1L89.9,100.2z M101.4,123l2.5,0.8
		c-2.2,11.7-6.5,27.2-9.2,34.7l-6-2.9C92.6,147.4,98.1,133.2,101.4,123z M136.7,141.4h-12.1v18.9h-5.5v-18.9h-14V138h14v-8.3h-10.6
		V103h10.6v-8.4h-13.4v-3.4h13.4V80.3h5.5v10.9h12.6v3.4h-12.6v8.4h10.5v26.7h-10.5v8.3h12.1V141.4z M113.7,114.5h16.4v-8.1h-16.4
		V114.5z M130.1,126.4v-8.6h-16.4v8.6H130.1z M162.7,85.3V153c0,6.9-6.2,9.4-19.6,3.5l0.6-2.5c12,2.1,13.4,1.5,13.4-2.8v-23.4h-12
		c-0.9,14.7-4.2,24.5-12.9,33.4l-1.9-1.7c8.2-11,9.7-20.2,9.7-42.7V85.3H162.7z M157.2,124.6v-17.1h-11.6v8.4c0,3-0.1,5.9-0.2,8.6
		H157.2z M145.6,88.6v15.6h11.6V88.6H145.6z"/>
</g>
<g>
	<path class="st0" d="M106,76.2c-1.6-0.8-2.8-1.9-3.7-3.3c-0.9-1.4-1.3-3-1.3-4.8c0-1.8,0.4-3.4,1.3-4.8c0.9-1.4,2.1-2.5,3.7-3.3
		s3.3-1.2,5.3-1.2s3.8,0.4,5.3,1.2c1.6,0.8,2.8,1.9,3.7,3.3c0.9,1.4,1.3,3,1.3,4.8c0,1.8-0.4,3.4-1.3,4.8c-0.9,1.4-2.1,2.5-3.7,3.3
		c-1.6,0.8-3.3,1.2-5.3,1.2S107.6,77,106,76.2z M114.9,76c1-0.6,1.9-1.4,2.5-2.4c0.6-1.1,0.9-2.3,0.9-3.8v-3.4
		c0-1.4-0.3-2.7-0.9-3.8c-0.6-1.1-1.4-1.9-2.5-2.4c-1-0.6-2.2-0.8-3.5-0.8c-1.3,0-2.5,0.3-3.5,0.8c-1,0.6-1.9,1.4-2.5,2.4
		c-0.6,1.1-0.9,2.3-0.9,3.8v3.4c0,1.4,0.3,2.7,0.9,3.8c0.6,1.1,1.4,1.9,2.5,2.4s2.2,0.8,3.5,0.8C112.7,76.9,113.8,76.6,114.9,76z"/>
	<path class="st0" d="M127.4,76.4c-1-0.5-1.7-1.2-2.3-2.1c-0.5-0.9-0.8-1.9-0.8-3.1c0-1.2,0.3-2.2,0.8-3.1c0.5-0.9,1.3-1.6,2.3-2
		c1-0.5,2.1-0.7,3.4-0.7c1.1,0,2,0.2,2.8,0.7c0.8,0.4,1.4,1.1,1.9,1.8v-7.8l-1.9-0.2v-0.4h4.6v16.9l1.9,0.2v0.4h-4.6v-2.3
		c-0.5,0.8-1.1,1.4-1.9,1.8c-0.8,0.4-1.7,0.7-2.8,0.7C129.5,77.1,128.4,76.9,127.4,76.4z M133.2,76c0.6-0.4,1.2-0.9,1.6-1.5
		c0.4-0.6,0.6-1.3,0.6-2V70c0-0.7-0.2-1.4-0.6-2c-0.4-0.6-0.9-1.1-1.6-1.5s-1.4-0.6-2.2-0.6c-2.5,0-3.8,1.4-3.8,4.2v2.2
		c0,2.8,1.3,4.3,3.8,4.3C131.9,76.6,132.6,76.4,133.2,76z"/>
	<path class="st0" d="M141.4,76.9v-0.4l1.9-0.2v-10l-1.9-0.2v-0.4h4.6v10.7l1.9,0.2v0.4H141.4z M143,62.6c-0.4-0.3-0.5-0.6-0.5-1
		c0-0.4,0.2-0.8,0.5-1c0.4-0.3,0.8-0.4,1.3-0.4c0.5,0,0.9,0.1,1.3,0.4c0.3,0.3,0.5,0.6,0.5,1c0,0.4-0.2,0.8-0.5,1
		c-0.3,0.3-0.8,0.4-1.3,0.4C143.8,63,143.3,62.9,143,62.6z"/>
	<path class="st0" d="M150.9,76.4c-0.7-0.5-1.1-1.2-1.1-2.2c0-1.4,0.7-2.3,2.2-2.9c1.4-0.6,3.1-0.9,5-0.9h1.8v-1.7
		c0-0.8-0.1-1.3-0.3-1.8c-0.2-0.4-0.5-0.7-1-0.9s-1-0.3-1.8-0.3c-0.9,0-1.5,0.1-1.9,0.4c-0.4,0.3-0.6,0.6-0.6,1.1
		c0,0.4,0.3,0.7,0.8,0.8c0,0.4-0.2,0.7-0.5,1c-0.3,0.3-0.8,0.4-1.2,0.4c-0.5,0-0.9-0.1-1.2-0.3c-0.3-0.2-0.5-0.6-0.5-1
		c0-0.8,0.5-1.5,1.6-2c1.1-0.5,2.4-0.8,4-0.8c3.6,0,5.5,1.3,5.5,3.8v6.3c0,0.3,0.1,0.6,0.3,0.7c0.2,0.2,0.4,0.3,0.8,0.3
		c0.3,0,0.6-0.1,0.7-0.3c0.2-0.2,0.3-0.4,0.3-0.7h0.6c0,0.5-0.2,0.9-0.6,1.2s-1,0.4-1.7,0.4c-0.8,0-1.5-0.2-2.1-0.6
		c-0.6-0.4-0.9-1-0.9-1.8c-0.4,0.7-1.1,1.3-2,1.8c-0.9,0.4-1.9,0.6-3,0.6C152.6,77.1,151.6,76.9,150.9,76.4z M156.7,75.8
		c0.5-0.2,1-0.6,1.3-1c0.4-0.4,0.6-1,0.7-1.6v-2.3h-1.8c-1.5,0-2.6,0.3-3.3,0.8s-1.1,1.3-1.1,2.2c0,0.8,0.2,1.4,0.7,1.7
		s1.2,0.5,2.1,0.5C155.7,76.2,156.2,76.1,156.7,75.8z"/>
</g>
<g>
	<path class="st0" d="M32.9,183.7c-0.2,1.2-0.5,2.5-1.1,3.5c-0.2-0.1-0.6-0.3-0.8-0.4c1-1.5,1.2-3.7,1.2-5.1V180h5.3v3.8H32.9z
		 M35.5,176.4c-0.1,0.1-0.1,0.2-0.2,0.3c1,0.6,2.2,1.4,2.9,1.9l-0.5,0.8c-0.6-0.5-1.8-1.3-2.9-2c-0.9,1.1-2.1,2-3.3,2.6
		c-0.1-0.2-0.4-0.7-0.5-0.9c1.4-0.7,2.9-1.8,3.7-3.1L35.5,176.4z M32.9,184.3h4.8v3.4h-0.9v-0.5h-3.1v0.5h-0.8V184.3z M36.5,183
		v-0.9H33c0,0.3,0,0.6-0.1,0.9H36.5z M33,180.7v0.8h3.5v-0.8H33z M36.2,178.7v0.6h-2.7v-0.6H36.2z M33.7,185.1v1.4h3.1v-1.4H33.7z
		 M39.8,184.5h-0.9v-7.1h0.9V184.5z M42.2,176v10.5c0,0.6-0.2,0.9-0.5,1.1c-0.4,0.2-1,0.2-2.1,0.2c-0.1-0.3-0.2-0.7-0.3-1
		c0.8,0,1.5,0,1.7,0c0.2,0,0.3-0.1,0.3-0.3V176H42.2z"/>
	<path class="st0" d="M49,187c0.6-0.6,1.2-1.5,1.5-2.3l0.8,0.4c-0.4,0.8-0.9,1.7-1.6,2.4L49,187z M60.2,179v0.8H49.1V179h3
		c-0.1-0.3-0.3-0.8-0.5-1.1l0.8-0.2h-2.8v-0.8h4.6c-0.1-0.3-0.3-0.6-0.5-0.9l0.9-0.2c0.2,0.3,0.4,0.7,0.6,1.1h4.1v0.8H57l0.8,0.2
		c-0.2,0.4-0.4,0.8-0.6,1.1H60.2z M58.7,184.2h-4.5c0.7,0.4,1.5,0.9,1.9,1.3l-0.6,0.6c-0.4-0.4-1.3-1-2-1.5l0.4-0.4h-3.3v-3.8h8.1
		V184.2z M57.8,181.1h-6.2v0.9h6.2V181.1z M57.8,182.6h-6.2v0.9h6.2V182.6z M56,186.9c0.6,0,0.6-0.2,0.7-1.3
		c0.2,0.1,0.6,0.3,0.8,0.3c-0.1,1.4-0.4,1.8-1.4,1.8h-2.4c-1.3,0-1.7-0.2-1.7-1.2v-1.7H53v1.7c0,0.3,0.1,0.4,0.8,0.4H56z
		 M52.5,177.7c0.2,0.4,0.5,0.9,0.6,1.3h3c0.2-0.4,0.5-0.9,0.6-1.3H52.5z M58.5,184.6c0.7,0.6,1.4,1.6,1.7,2.2l-0.8,0.4
		c-0.3-0.7-1-1.6-1.7-2.3L58.5,184.6z"/>
	<path class="st0" d="M72.1,184.5c-0.1,0.6-0.4,1.2-1.1,1.7c0.6,0.3,1.1,0.5,1.5,0.8l-0.6,0.6c-0.4-0.3-1-0.6-1.6-0.8
		c-0.8,0.4-2,0.8-3.6,1.1c-0.1-0.2-0.3-0.5-0.4-0.6c1.4-0.2,2.4-0.5,3.1-0.9c-0.7-0.3-1.4-0.5-2-0.7c0.2-0.3,0.4-0.5,0.7-0.9
		l-1.5,0.1l-0.1-0.7c0.6,0,1.3-0.1,2.1-0.1c0.2-0.4,0.4-0.7,0.6-1H67v-2.1h2.5v-0.5h-2.1v-1.4h-0.9v-0.7h0.9v-1.3h2.1v-0.9h0.8v0.9
		h2.2v1.3h0.9v0.7h-0.9v1.4h-2.2v0.5h2.5v2.1H70c-0.2,0.3-0.3,0.6-0.5,1c0.6,0,1.3-0.1,2-0.1v-0.1v-0.5h0.8v0.5v0.1l0.6,0l0,0.7
		L72.1,184.5z M67.8,182.3h1.6v-0.8h-1.6V182.3z M68.2,177.5v0.7h1.3v-0.7H68.2z M69.4,179.7v-0.8h-1.3v0.8H69.4z M69,184.7
		c-0.1,0.2-0.3,0.4-0.4,0.6c0.5,0.2,1.1,0.4,1.6,0.6c0.6-0.4,0.9-0.9,1.1-1.3L69,184.7z M70.2,177.5v0.7h1.4v-0.7H70.2z M71.6,179.7
		v-0.8h-1.4v0.8H71.6z M70.2,181.5v0.8h1.7v-0.8H70.2z M77.3,179.3c-0.2,1.9-0.6,3.6-1.2,5c0.6,1.2,1.3,2.1,2.2,2.7
		c-0.2,0.2-0.5,0.5-0.6,0.7c-0.8-0.6-1.5-1.4-2-2.5c-0.6,1.1-1.3,2-2.4,2.7c-0.1-0.2-0.4-0.6-0.5-0.7c1.1-0.7,1.9-1.7,2.4-2.9
		c-0.4-1-0.7-2.2-0.9-3.4c-0.2,0.5-0.4,1-0.7,1.4c-0.1-0.1-0.5-0.5-0.7-0.6c0.9-1.4,1.4-3.5,1.7-5.6l0.8,0.1
		c-0.1,0.8-0.2,1.5-0.4,2.2h3.2v0.9H77.3z M74.8,179.3c0.2,1.4,0.5,2.7,0.9,3.8c0.4-1.1,0.6-2.4,0.8-3.8H74.8z"/>
	<path class="st0" d="M88.1,176.3c-0.4,0.9-0.8,1.9-1.3,2.8v8.8h-1v-7.3c-0.4,0.6-0.8,1.1-1.3,1.6c-0.1-0.2-0.4-0.7-0.5-0.9
		c1.3-1.2,2.5-3.2,3.2-5.2L88.1,176.3z M95.8,186.4v0.9h-8.1v-0.9h4.5c0.5-1.7,1-4.5,1.2-6.4l1,0.2c-0.3,2-0.9,4.5-1.3,6.3H95.8z
		 M95.3,179.2h-7v-0.9h7V179.2z M90,185.8c-0.1-1.4-0.5-3.7-0.9-5.5L90,180c0.4,1.8,0.8,4.1,1,5.5L90,185.8z M91.5,178.2
		c-0.1-0.5-0.4-1.4-0.6-2.1l0.9-0.2c0.2,0.7,0.5,1.5,0.7,2L91.5,178.2z"/>
	<path class="st0" d="M106.3,178.5c-0.2,0.5-0.5,1-0.8,1.5h6.3v6.6c0,0.6-0.1,0.9-0.5,1c-0.4,0.2-1.2,0.2-2.3,0.2
		c0-0.3-0.2-0.7-0.3-0.9c0.9,0,1.7,0,1.9,0c0.2,0,0.3-0.1,0.3-0.3v-1.4h-5.6c-0.2,0.9-0.6,1.9-1.3,2.6c-0.1-0.2-0.5-0.6-0.7-0.8
		c1.1-1,1.2-2.5,1.2-3.7v-1.9c-0.6,0.7-1.3,1.4-2.1,2c-0.1-0.2-0.4-0.6-0.6-0.8c1.5-1,2.7-2.6,3.5-4.2H102v-0.9h3.7
		c0.2-0.6,0.4-1.1,0.6-1.7l1,0.2c-0.1,0.5-0.3,1-0.5,1.4h6.6v0.9H106.3z M110.9,184.4v-1.4h-5.4v0.4c0,0.3,0,0.6,0,1H110.9z
		 M110.9,180.9h-5.4v1.3h5.4V180.9z"/>
	<path class="st0" d="M124,176.8c-0.4,1.1-0.9,2.3-1.3,3.4c0.9,1.1,1.2,2,1.2,2.8c0,0.7-0.2,1.2-0.5,1.5c-0.2,0.1-0.4,0.2-0.7,0.2
		c-0.2,0-0.6,0-0.9,0c0-0.2-0.1-0.6-0.2-0.9c0.3,0,0.5,0,0.8,0c0.2,0,0.3,0,0.4-0.1c0.2-0.1,0.3-0.5,0.3-0.9c0-0.7-0.2-1.6-1.2-2.6
		c0.4-0.9,0.8-2.1,1-2.9h-1.9v10.4h-0.9v-11.3h3.1l0.1,0L124,176.8z M131.1,183.3c-0.7,0.5-1.5,1.1-2.2,1.5c0.6,0.9,1.5,1.6,2.5,2.1
		c-0.2,0.2-0.5,0.6-0.7,0.8c-2-1-3.2-3-3.9-5.5h-1.2v4.3l2.3-0.6c0,0.3,0,0.7,0.1,0.9c-2.7,0.7-3.1,0.9-3.3,1
		c-0.1-0.2-0.3-0.6-0.4-0.8c0.2-0.1,0.5-0.4,0.5-0.9v-9.6h5.7v5.7h-2.7c0.2,0.7,0.4,1.4,0.8,2c0.7-0.5,1.5-1.1,2-1.5L131.1,183.3z
		 M125.5,177.4v1.6h3.8v-1.6H125.5z M125.5,181.4h3.8v-1.6h-3.8V181.4z"/>
	<path class="st0" d="M141.7,176.7c-0.9,2.1-2.4,4.2-3.8,5.5c-0.2-0.2-0.6-0.6-0.9-0.8c1.5-1.2,2.8-3.1,3.6-5.1L141.7,176.7z
		 M145.4,182.8c1.1,1.4,2.3,3.2,2.9,4.4l-1,0.5c-0.2-0.4-0.4-0.8-0.7-1.2c-6.7,0.5-7.4,0.5-8,0.7c0-0.2-0.2-0.7-0.4-1
		c0.4-0.1,0.7-0.5,1.2-1.1c0.5-0.6,2.2-2.9,3.3-5.1l1.1,0.5c-1.1,2-2.5,4-3.8,5.6l6-0.3c-0.5-0.8-1.1-1.7-1.6-2.3L145.4,182.8z
		 M145.6,176.3c0.6,2.1,1.9,4,3.4,5c-0.2,0.2-0.6,0.6-0.8,0.9c-1.5-1.1-2.7-3-3.4-4.9h-2.4v-1H145.6z"/>
	<path class="st0" d="M165.7,186.4c0,0.7-0.1,1-0.6,1.2c-0.5,0.2-1.3,0.2-2.4,0.2c0-0.3-0.2-0.8-0.3-1c0.9,0,1.8,0,2.1,0
		c0.2,0,0.3-0.1,0.3-0.3v-8.7h-9.3v-0.9h10.3V186.4z M163.2,179.9h-7.8v-0.9h7.8V179.9z M157.2,185.5v0.9h-0.9v-5.1h6.1v4.1H157.2z
		 M157.2,182.2v2.4h4.2v-2.4H157.2z"/>
</g>
<path class="st0" d="M0.4,166.7c0,0,0.1,0,0.1-0.1l11.8-11.8c0.4-0.4,0.4-1,0-1.4s-1-0.4-1.4,0L0.4,163.9V166.7z"/>
<path class="st0" d="M0.4,189.6c0,0,0.1,0,0.1-0.1l32.2-32.2c0.4-0.4,0.4-1,0-1.4s-1-0.4-1.4,0L0.4,186.9V189.6z"/>
<path class="st1" d="M44.1,196.9c-0.4-0.4-1-0.4-1.4,0L0.4,239.3v2.8l43.7-43.7C44.5,198,44.5,197.3,44.1,196.9z"/>
<path class="st0" d="M195,0.1h-2.7l-40,40c-0.4,0.4-0.4,1,0,1.4c0.2,0.2,0.5,0.3,0.7,0.3s0.5-0.1,0.7-0.3l41.1-41.1
	C194.8,0.3,194.9,0.2,195,0.1z"/>
<path class="st0" d="M171.4,0.1h-2.7l-49.5,49.5c-0.4,0.4-0.4,1,0,1.4c0.2,0.2,0.5,0.3,0.7,0.3s0.5-0.1,0.7-0.3l50.6-50.6
	C171.3,0.3,171.3,0.2,171.4,0.1z"/>
</svg>
